<mxfile host="app.diagrams.net" modified="2021-04-11T01:56:10.765Z" agent="5.0 (Windows NT 10.0; Win64; x64) AppleWebKit/537.36 (KHTML, like Gecko) Chrome/89.0.4389.114 Safari/537.36 Edg/89.0.774.75" etag="DK8WvBZsF4PHFL28lNsa" version="14.4.9" type="github">
  <diagram id="4QiD2wS-ADhmTIEoaPL0" name="Page-1">
    <mxGraphModel dx="942" dy="495" grid="1" gridSize="10" guides="1" tooltips="1" connect="1" arrows="1" fold="1" page="1" pageScale="1" pageWidth="850" pageHeight="1100" math="0" shadow="0">
      <root>
        <mxCell id="0" />
        <mxCell id="1" parent="0" />
        <mxCell id="A4mP3yVnuk_S5JkYmiS--1" value="" style="rounded=0;whiteSpace=wrap;html=1;" vertex="1" parent="1">
          <mxGeometry x="30" y="70" width="120" height="440" as="geometry" />
        </mxCell>
        <mxCell id="A4mP3yVnuk_S5JkYmiS--2" value="" style="rounded=0;whiteSpace=wrap;html=1;strokeColor=#000099;" vertex="1" parent="1">
          <mxGeometry x="820" y="40" width="660" height="500" as="geometry" />
        </mxCell>
        <mxCell id="A4mP3yVnuk_S5JkYmiS--3" value="" style="rounded=0;whiteSpace=wrap;html=1;strokeColor=#FF0000;" vertex="1" parent="1">
          <mxGeometry x="830" y="70" width="310" height="460" as="geometry" />
        </mxCell>
        <mxCell id="A4mP3yVnuk_S5JkYmiS--4" value="" style="rounded=0;whiteSpace=wrap;html=1;strokeColor=#3333FF;" vertex="1" parent="1">
          <mxGeometry x="1160" y="70" width="160" height="460" as="geometry" />
        </mxCell>
        <mxCell id="A4mP3yVnuk_S5JkYmiS--5" value="AZURE NETWORK 10.0.0.1/24" style="text;html=1;align=center;verticalAlign=middle;resizable=0;points=[];autosize=1;" vertex="1" parent="1">
          <mxGeometry x="1030" y="20" width="180" height="20" as="geometry" />
        </mxCell>
        <mxCell id="A4mP3yVnuk_S5JkYmiS--6" value="JUMPBOX/VM" style="text;html=1;align=center;verticalAlign=middle;resizable=0;points=[];autosize=1;" vertex="1" parent="1">
          <mxGeometry x="1185" y="50" width="90" height="20" as="geometry" />
        </mxCell>
        <mxCell id="A4mP3yVnuk_S5JkYmiS--7" value="VIRTUAL MACHINES" style="text;html=1;align=center;verticalAlign=middle;resizable=0;points=[];autosize=1;" vertex="1" parent="1">
          <mxGeometry x="980" y="50" width="130" height="20" as="geometry" />
        </mxCell>
        <mxCell id="A4mP3yVnuk_S5JkYmiS--8" value="" style="image;html=1;image=img/lib/clip_art/computers/Monitor_128x128.png" vertex="1" parent="1">
          <mxGeometry x="1040" y="90" width="80" height="40" as="geometry" />
        </mxCell>
        <mxCell id="A4mP3yVnuk_S5JkYmiS--9" value="" style="image;html=1;image=img/lib/clip_art/computers/Monitor_128x128.png" vertex="1" parent="1">
          <mxGeometry x="1040" y="200" width="80" height="40" as="geometry" />
        </mxCell>
        <mxCell id="A4mP3yVnuk_S5JkYmiS--10" value="" style="image;html=1;image=img/lib/clip_art/computers/Monitor_128x128.png" vertex="1" parent="1">
          <mxGeometry x="1040" y="290" width="80" height="40" as="geometry" />
        </mxCell>
        <mxCell id="A4mP3yVnuk_S5JkYmiS--11" value="" style="image;html=1;image=img/lib/clip_art/computers/Monitor_128x128.png" vertex="1" parent="1">
          <mxGeometry x="1040" y="360" width="80" height="40" as="geometry" />
        </mxCell>
        <mxCell id="A4mP3yVnuk_S5JkYmiS--12" value="" style="image;html=1;image=img/lib/clip_art/computers/Monitor_128x128.png" vertex="1" parent="1">
          <mxGeometry x="1040" y="450" width="80" height="40" as="geometry" />
        </mxCell>
        <mxCell id="A4mP3yVnuk_S5JkYmiS--13" value="" style="image;html=1;image=img/lib/clip_art/computers/Virtual_Machine_128x128.png" vertex="1" parent="1">
          <mxGeometry x="1230" y="230" width="80" height="80" as="geometry" />
        </mxCell>
        <mxCell id="A4mP3yVnuk_S5JkYmiS--14" value="" style="endArrow=none;html=1;strokeColor=#FF33FF;" edge="1" parent="1" source="A4mP3yVnuk_S5JkYmiS--8">
          <mxGeometry width="50" height="50" relative="1" as="geometry">
            <mxPoint x="1130" y="160" as="sourcePoint" />
            <mxPoint x="1180" y="110" as="targetPoint" />
            <Array as="points">
              <mxPoint x="1090" y="110" />
            </Array>
          </mxGeometry>
        </mxCell>
        <mxCell id="A4mP3yVnuk_S5JkYmiS--15" value="" style="endArrow=none;html=1;strokeColor=#FF33FF;" edge="1" parent="1">
          <mxGeometry width="50" height="50" relative="1" as="geometry">
            <mxPoint x="1120" y="219.5" as="sourcePoint" />
            <mxPoint x="1180" y="219.5" as="targetPoint" />
            <Array as="points">
              <mxPoint x="1090" y="219.5" />
            </Array>
          </mxGeometry>
        </mxCell>
        <mxCell id="A4mP3yVnuk_S5JkYmiS--16" value="" style="endArrow=none;html=1;strokeColor=#FF33FF;" edge="1" parent="1">
          <mxGeometry width="50" height="50" relative="1" as="geometry">
            <mxPoint x="1120" y="299" as="sourcePoint" />
            <mxPoint x="1180" y="299" as="targetPoint" />
            <Array as="points">
              <mxPoint x="1090" y="299" />
            </Array>
          </mxGeometry>
        </mxCell>
        <mxCell id="A4mP3yVnuk_S5JkYmiS--17" value="" style="endArrow=none;html=1;strokeColor=#FF33FF;" edge="1" parent="1">
          <mxGeometry width="50" height="50" relative="1" as="geometry">
            <mxPoint x="1120" y="360" as="sourcePoint" />
            <mxPoint x="1180" y="360" as="targetPoint" />
            <Array as="points">
              <mxPoint x="1090" y="360" />
              <mxPoint x="1150" y="360" />
            </Array>
          </mxGeometry>
        </mxCell>
        <mxCell id="A4mP3yVnuk_S5JkYmiS--19" value="" style="endArrow=none;html=1;strokeColor=#FF33FF;" edge="1" parent="1">
          <mxGeometry width="50" height="50" relative="1" as="geometry">
            <mxPoint x="1120" y="450" as="sourcePoint" />
            <mxPoint x="1180" y="450" as="targetPoint" />
            <Array as="points">
              <mxPoint x="1090" y="450" />
              <mxPoint x="1140" y="450" />
            </Array>
          </mxGeometry>
        </mxCell>
        <mxCell id="A4mP3yVnuk_S5JkYmiS--20" value="" style="endArrow=none;html=1;strokeColor=#FF66FF;" edge="1" parent="1">
          <mxGeometry width="50" height="50" relative="1" as="geometry">
            <mxPoint x="1180" y="450" as="sourcePoint" />
            <mxPoint x="1180" y="110" as="targetPoint" />
          </mxGeometry>
        </mxCell>
        <mxCell id="A4mP3yVnuk_S5JkYmiS--21" value="" style="endArrow=none;html=1;strokeColor=#FF33FF;" edge="1" parent="1">
          <mxGeometry width="50" height="50" relative="1" as="geometry">
            <mxPoint x="1180" y="260" as="sourcePoint" />
            <mxPoint x="1230" y="260" as="targetPoint" />
          </mxGeometry>
        </mxCell>
        <mxCell id="A4mP3yVnuk_S5JkYmiS--22" value="" style="verticalLabelPosition=bottom;aspect=fixed;html=1;verticalAlign=top;strokeColor=none;align=center;outlineConnect=0;shape=mxgraph.citrix.firewall;fillColor=#3333FF;" vertex="1" parent="1">
          <mxGeometry x="1380" y="137" width="50.81" height="63" as="geometry" />
        </mxCell>
        <mxCell id="A4mP3yVnuk_S5JkYmiS--23" value="" style="endArrow=none;html=1;strokeColor=#FF33FF;exitX=0.864;exitY=0.449;exitDx=0;exitDy=0;exitPerimeter=0;" edge="1" parent="1" source="A4mP3yVnuk_S5JkYmiS--2" target="A4mP3yVnuk_S5JkYmiS--22">
          <mxGeometry width="50" height="50" relative="1" as="geometry">
            <mxPoint x="1360" y="250" as="sourcePoint" />
            <mxPoint x="1397" y="200" as="targetPoint" />
            <Array as="points">
              <mxPoint x="1404" y="190" />
            </Array>
          </mxGeometry>
        </mxCell>
        <mxCell id="A4mP3yVnuk_S5JkYmiS--24" value="" style="endArrow=none;html=1;strokeColor=#FF33FF;exitX=0.875;exitY=0.375;exitDx=0;exitDy=0;exitPerimeter=0;" edge="1" parent="1" source="A4mP3yVnuk_S5JkYmiS--13">
          <mxGeometry width="50" height="50" relative="1" as="geometry">
            <mxPoint x="1360" y="310" as="sourcePoint" />
            <mxPoint x="1400" y="260" as="targetPoint" />
          </mxGeometry>
        </mxCell>
        <mxCell id="A4mP3yVnuk_S5JkYmiS--25" value="" style="endArrow=none;html=1;strokeColor=#FF33FF;exitX=0.925;exitY=0.683;exitDx=0;exitDy=0;exitPerimeter=0;" edge="1" parent="1" source="A4mP3yVnuk_S5JkYmiS--22">
          <mxGeometry width="50" height="50" relative="1" as="geometry">
            <mxPoint x="1440.81" y="180" as="sourcePoint" />
            <mxPoint x="1520" y="180" as="targetPoint" />
          </mxGeometry>
        </mxCell>
        <mxCell id="A4mP3yVnuk_S5JkYmiS--28" value="" style="outlineConnect=0;dashed=0;verticalLabelPosition=bottom;verticalAlign=top;align=center;html=1;shape=mxgraph.aws3.internet;fillColor=#3333FF;gradientColor=none;strokeColor=#000099;" vertex="1" parent="1">
          <mxGeometry x="1520" y="137" width="79.5" height="79.5" as="geometry" />
        </mxCell>
        <mxCell id="A4mP3yVnuk_S5JkYmiS--29" value="" style="image;html=1;image=img/lib/clip_art/computers/IBM_Tablet_128x128.png;strokeColor=#000099;fillColor=#3333FF;" vertex="1" parent="1">
          <mxGeometry x="1519.5" y="290" width="80" height="80" as="geometry" />
        </mxCell>
        <mxCell id="A4mP3yVnuk_S5JkYmiS--32" value="" style="endArrow=none;html=1;strokeColor=#FF33FF;exitX=0.5;exitY=0;exitDx=0;exitDy=0;" edge="1" parent="1" source="A4mP3yVnuk_S5JkYmiS--29">
          <mxGeometry width="50" height="50" relative="1" as="geometry">
            <mxPoint x="1510" y="240" as="sourcePoint" />
            <mxPoint x="1560" y="190" as="targetPoint" />
          </mxGeometry>
        </mxCell>
        <mxCell id="A4mP3yVnuk_S5JkYmiS--33" value="Kali/VM&lt;br&gt;192.168.1.990" style="text;html=1;align=center;verticalAlign=middle;resizable=0;points=[];autosize=1;" vertex="1" parent="1">
          <mxGeometry x="1030" y="130" width="90" height="30" as="geometry" />
        </mxCell>
        <mxCell id="A4mP3yVnuk_S5JkYmiS--34" value="Elk/VM&lt;br&gt;192.168.1.100" style="text;html=1;align=center;verticalAlign=middle;resizable=0;points=[];autosize=1;" vertex="1" parent="1">
          <mxGeometry x="1020" y="230" width="90" height="30" as="geometry" />
        </mxCell>
        <mxCell id="A4mP3yVnuk_S5JkYmiS--35" value="Target 1 machine&lt;br&gt;192.168.1.110" style="text;html=1;align=center;verticalAlign=middle;resizable=0;points=[];autosize=1;" vertex="1" parent="1">
          <mxGeometry x="970" y="330" width="110" height="30" as="geometry" />
        </mxCell>
        <mxCell id="A4mP3yVnuk_S5JkYmiS--36" value="Target 2 machine&lt;br&gt;192.168.1.115" style="text;html=1;align=center;verticalAlign=middle;resizable=0;points=[];autosize=1;" vertex="1" parent="1">
          <mxGeometry x="980" y="395" width="110" height="30" as="geometry" />
        </mxCell>
        <mxCell id="A4mP3yVnuk_S5JkYmiS--37" value="Capstone machine&lt;br&gt;192.168.1.105" style="text;html=1;align=center;verticalAlign=middle;resizable=0;points=[];autosize=1;" vertex="1" parent="1">
          <mxGeometry x="975" y="475" width="120" height="30" as="geometry" />
        </mxCell>
        <mxCell id="A4mP3yVnuk_S5JkYmiS--38" value="ML-REFVM-684427&lt;br&gt;192.168.1.1&lt;br&gt;10.0.0.27&lt;br&gt;Open ports&lt;br&gt;135/TCP, 139/TCP&lt;br&gt;445/TCP, 2179/TCP&lt;br&gt;3389/TCP" style="text;html=1;align=center;verticalAlign=middle;resizable=0;points=[];autosize=1;" vertex="1" parent="1">
          <mxGeometry x="1200" y="300" width="120" height="100" as="geometry" />
        </mxCell>
        <mxCell id="A4mP3yVnuk_S5JkYmiS--39" value="Windows Azure&lt;br&gt;firewall" style="text;html=1;align=center;verticalAlign=middle;resizable=0;points=[];autosize=1;" vertex="1" parent="1">
          <mxGeometry x="1355.41" y="105" width="100" height="30" as="geometry" />
        </mxCell>
        <mxCell id="A4mP3yVnuk_S5JkYmiS--40" value="Client Desktop" style="text;html=1;align=center;verticalAlign=middle;resizable=0;points=[];autosize=1;" vertex="1" parent="1">
          <mxGeometry x="1500" y="380" width="90" height="20" as="geometry" />
        </mxCell>
        <mxCell id="A4mP3yVnuk_S5JkYmiS--41" value="INTERNET" style="text;html=1;align=center;verticalAlign=middle;resizable=0;points=[];autosize=1;" vertex="1" parent="1">
          <mxGeometry x="1525" y="110" width="80" height="20" as="geometry" />
        </mxCell>
        <mxCell id="A4mP3yVnuk_S5JkYmiS--42" value="Design by TAMERAT TESHOME" style="text;html=1;align=center;verticalAlign=middle;resizable=0;points=[];autosize=1;" vertex="1" parent="1">
          <mxGeometry x="860" y="580" width="190" height="20" as="geometry" />
        </mxCell>
        <mxCell id="A4mP3yVnuk_S5JkYmiS--43" value="open ports&lt;br&gt;22/TCP" style="text;html=1;align=center;verticalAlign=middle;resizable=0;points=[];autosize=1;" vertex="1" parent="1">
          <mxGeometry x="860" y="120" width="70" height="30" as="geometry" />
        </mxCell>
        <mxCell id="A4mP3yVnuk_S5JkYmiS--44" value="open ports&lt;br&gt;22/TCP, 9200/TCP" style="text;html=1;align=center;verticalAlign=middle;resizable=0;points=[];autosize=1;" vertex="1" parent="1">
          <mxGeometry x="840" y="230" width="120" height="30" as="geometry" />
        </mxCell>
        <mxCell id="A4mP3yVnuk_S5JkYmiS--46" value="open ports&lt;br&gt;22/TCP, 80/TCP&lt;br&gt;111/TCP, 139/TCP&lt;br&gt;445/TCP" style="text;html=1;align=center;verticalAlign=middle;resizable=0;points=[];autosize=1;" vertex="1" parent="1">
          <mxGeometry x="840" y="305" width="110" height="60" as="geometry" />
        </mxCell>
        <mxCell id="A4mP3yVnuk_S5JkYmiS--48" value="open ports&lt;br&gt;22/TCP, 80/TCP&lt;br&gt;111/TCP, 139/TCP&lt;br&gt;445/TCP" style="text;html=1;align=center;verticalAlign=middle;resizable=0;points=[];autosize=1;" vertex="1" parent="1">
          <mxGeometry x="845" y="380" width="110" height="60" as="geometry" />
        </mxCell>
        <mxCell id="A4mP3yVnuk_S5JkYmiS--49" value="open ports&lt;br&gt;22/TCP, 80/TCP" style="text;html=1;align=center;verticalAlign=middle;resizable=0;points=[];autosize=1;" vertex="1" parent="1">
          <mxGeometry x="855" y="470" width="100" height="30" as="geometry" />
        </mxCell>
      </root>
    </mxGraphModel>
  </diagram>
</mxfile>
